<?xml version="1.0" encoding="utf-8"?>
<!-- Generator: Adobe Illustrator 27.0.0, SVG Export Plug-In . SVG Version: 6.00 Build 0)  -->
<svg version="1.1" id="Capa_1" xmlns="http://www.w3.org/2000/svg" xmlns:xlink="http://www.w3.org/1999/xlink" x="0px" y="0px"
	 viewBox="0 0 56 56" style="enable-background:new 0 0 56 56;" xml:space="preserve">
<style type="text/css">
	.st0{fill:#606060;}
</style>
<g>
	<path class="st0" d="M18.7,32.6c-2.4,0-4.4,1.4-5.7,3.2c-1.3-1.8-3.3-3.2-5.7-3.2c-3.8,0-6.9,3-7.3,7.1c0,0.3-0.1,1.2,0.2,2.7
		c0.5,2.2,1.8,4.2,3.6,5.8l8.3,7.1c0.2,0.2,0.5,0.3,0.8,0.3s0.5-0.1,0.8-0.3l8.3-7.1c1.8-1.6,3.1-3.6,3.6-5.8
		c0.4-1.5,0.3-2.4,0.2-2.7C25.6,35.5,22.5,32.6,18.7,32.6z M23.8,41.8c-0.4,1.8-1.5,3.4-3,4.7L13,53.2l-7.8-6.7
		c-1.5-1.3-2.5-2.9-3-4.7C1.9,40.6,2,39.9,2,39.9l0-0.1c0.2-2.6,2.1-5.3,5.3-5.3c2.2,0,4,1.8,4.8,3.6l0.9,2.1l0.9-2.1
		c0.8-1.8,2.6-3.6,4.8-3.6c3.1,0,5,2.7,5.3,5.4C24,39.9,24.1,40.6,23.8,41.8z"/>
	<path class="st0" d="M55.4,41.4c-2-3.8-9-7.9-9.3-8.1c-1.3-0.7-2.6-1-3.7-0.6c-0.8,0.2-1.5,0.8-2,1.5c-1,1.2-2.3,2.6-2.6,2.9
		c-2.4,1.6-4.3,1.4-6.3-0.6L20,25c-2-2-2.2-3.9-0.6-6.3c0.2-0.3,1.6-1.6,2.9-2.6c0.8-0.5,1.3-1.1,1.5-2c0.3-1.1,0.1-2.5-0.7-3.7
		c-0.2-0.3-4.3-7.3-8.1-9.3c-1.9-1-4.3-0.7-5.8,0.9L6.8,4.5c-6,6-6.2,13.4-0.6,21.3c0.3,0.4,0.9,0.6,1.4,0.2
		c0.4-0.3,0.6-0.9,0.2-1.4c-5.2-7.2-5-13.3,0.4-18.7l2.5-2.5c0.9-0.9,2.3-1.1,3.4-0.5c3.3,1.7,7.3,8.5,7.3,8.5
		c0.4,0.8,0.6,1.6,0.5,2.2c-0.1,0.4-0.3,0.6-0.7,0.8l-0.2,0.1c-0.9,0.7-2.9,2.4-3.3,3.1c-0.6,0.9-1,1.8-1.2,2.7
		c-0.7-1.4-1.3-3.1-1.5-4.9c-0.1-0.5-0.5-0.9-1.1-0.9c-0.5,0.1-0.9,0.5-0.9,1.1c0.7,7,6.1,11.5,6.4,11.7c0,0,0.1,0,0.1,0l10.6,10.6
		c0,0,0.1,0.1,0.1,0.1c0,0.1,0.1,0.1,0.1,0.2c0.2,0.2,4.7,4.6,11.6,5.3c0,0,0.1,0,0.1,0c0.5,0,0.9-0.4,1-0.9c0.1-0.5-0.3-1-0.9-1.1
		c-2.1-0.2-4-0.8-5.5-1.6c0.8-0.2,1.5-0.6,2.3-1.1c0.6-0.4,2.3-2.5,3.1-3.3l0.1-0.2c0.2-0.4,0.5-0.6,0.8-0.7c0.6-0.2,1.4,0,2.2,0.5
		c1.9,1.1,7.1,4.6,8.5,7.3c0.6,1.1,0.4,2.5-0.5,3.4l-2.5,2.5c-5.4,5.4-11.8,5.4-19,0.2c-0.4-0.3-1.1-0.2-1.4,0.2
		c-0.3,0.4-0.2,1.1,0.2,1.4c3.9,2.9,7.7,4.3,11.3,4.3c3.7,0,7.2-1.6,10.3-4.7l2.5-2.5C56.1,45.7,56.4,43.3,55.4,41.4z"/>
</g>
</svg>
