<?xml version="1.0" encoding="UTF-8"?>
<svg id="Layer_1" data-name="Layer 1" xmlns="http://www.w3.org/2000/svg" viewBox="0 0 1921.63 398.69">
  <defs>
    <style>
      .cls-1 {
        fill: none;
      }

      .cls-2 {
        fill: #0a0a0a;
      }

      .cls-3 {
        fill: #707070;
      }

      .cls-3, .cls-4 {
        stroke: #000;
        stroke-miterlimit: 10;
      }

      .cls-4 {
        stroke-width: 2.4px;
      }
    </style>
  </defs>
  <rect class="cls-1" x="219.4" y="-153.2" width="303.51" height="705.09" transform="translate(122.1 539.14) rotate(-82)"/>
  <path class="cls-2" d="M572.99,211.42c1.05-.36,1.9-1.1,3.01-1.59,.5,1.1,1.01,2.2,1.5,3.31,1.59,3.69,3.08,7.43,4.86,11.03,1.87,3.77,4.36,7.07,7.39,9.96,2.35,2.24,4.86,4.31,7.62,6.06,.2,.29,.48,.46,.81,.56,1.83,1.8,3.99,3.22,5.83,5.01,1.51,1.47,3.06,2.88,3.76,4.95-.14,.24,.04,.38,.17,.53,.43,2.01,.54,4.05,.7,6.09-.19,.21-.06,.39,.03,.58-.24,2.31-.34,4.63-.78,6.92-.26,.23-.17,.54-.2,.82-.19,.28-.2,.6-.16,.93-.28,.28-.39,.62-.37,1.01-.4,.59-.51,1.27-.66,1.94-.19,.14-.22,.33-.19,.55-.47,.43-.56,1.02-.68,1.59-.31,.22-.41,.54-.43,.9-.57,.82-1.09,1.68-1.71,2.46-2.07,2.61-4.86,3.98-8.07,4.59-.21-.05-.38,.05-.55,.15-.83-.06-1.65,.11-2.47,.2-.21-.15-.4-.05-.58,.05-.36-.02-.71-.05-1.07-.07-.2-.14-.4-.1-.59,.03-1.01-.23-2.03-.22-3.05-.18-.27-.15-.54-.16-.83-.05-.91-.22-1.83-.3-2.76-.25-.26-.29-.55-.09-.83-.04-.98-.33-2.01-.21-3.01-.32-.19-.14-.39-.1-.58-.02-.92-.22-1.84-.23-2.77-.14-.36-.21-.73-.14-1.1-.04-.36-.03-.72-.05-1.07-.08-.21-.1-.41-.08-.6,.04-.28-.13-.54,0-.81,.04-.28-.25-.56-.12-.83,0-.93-.09-1.85-.02-2.76,.18-.2-.06-.39-.03-.56,.09-1.87,.04-3.68,.51-5.5,.89-1.47,.31-2.94,.62-4.45,.5-.15-.21-.35-.18-.56-.14-3.07-.75-4.82-2.96-5.66-5.74-.48-1.57-.94-3.24-1-4.95-.01-.27-.13-.53-.2-.8,.21-.29,.03-.56-.05-.83-.05-1.48-.1-2.95-.15-4.43,.08-.21,.02-.39-.09-.57,.13-.28,.03-.55-.02-.82,.25-.37,.03-.74-.01-1.11-.03-3.43-.05-6.85-.09-10.28,0-.91-.06-1.82-.09-2.73,.11-.2,.07-.39-.06-.57,.18-.36,0-.72,0-1.08,.29-.29,.03-.57-.02-.85,.14-.28,.02-.55-.01-.82,.27-.28,.1-.55,0-.83,.13-.28,.05-.55,0-.83,.27-.37,.02-.74,0-1.1,.07-3.23,.06-6.46-.17-9.68,.07-.2,0-.38-.09-.56,.05-1.94-.02-3.88-.27-5.81,.2-.21,.12-.38-.06-.54-.26-.95-1.05-1.09-1.86-1.21-.22-.17-.4-.04-.59,.07-.36,0-.72-.02-1.08-.03-.2-.17-.39-.1-.58,.02-2.24-.19-4.5-.46-6.58-1.25-1.54-.58-3.27-1-4.46-2.37-.35-.4-.84-.74-1.34-.95-.67-.28-1.12-.78-1.6-1.26-1.6-1.62-3.04-3.39-4.34-5.26-.87-1.25-1.66-2.55-2.49-3.83-.04-.3-.12-.58-.41-.75-1.03-1.8-1.9-3.66-2.28-5.73-.12-.68-.62-1.34-.71-1.97-.12-.85-.23-1.71-.39-2.56-.3-1.58-.26-3.19-.54-4.76,.26-.29,.05-.57,0-.85,.11-.28,.02-.55-.01-.82,.26-.27,.16-.56,.02-.84,.19-1,.34-2.01,.26-3.03,.2-.17,.17-.36,.06-.56,.45-1.3,.62-2.67,.94-4,.57-2.35,1.77-4.37,3.04-6.36,1.23-1.94,3.07-3.33,4.67-4.93,.63-.64,1.59-1.01,2.34-1.6,.35-.07,.65-.22,.85-.52,1.73-.73,3.37-1.64,5.15-2.27,.85-.3,1.8-.19,2.58-.71,.22,.14,.38,.01,.54-.13,.94-.08,1.87-.18,2.78-.41,.21,.12,.38-.01,.55-.09,2.01,.01,4.02,.02,6.02,.04,.28,.3,.59,.13,.9,.07,.99,.28,2.01,.24,3.02,.24,.21,.2,.39,.04,.58-.06,2.92-.04,5.27-2.2,5.57-5.12,.38-.34,.27-.82,.34-1.25,.72-2.41,.83-4.93,1.27-7.39,.1-.58,.16-1.17,.24-1.76,.19-.24,.21-.52,.18-.82,.46-1.01,.39-2.15,.74-3.18,.29-.26,.37-.6,.38-.97,.4-1.42,1.22-2.68,1.51-4.14,.07-.1,.14-.2,.21-.29,.76-.27,.73-1.06,1.01-1.63,.36-.73-.13-1.22-.6-1.75-.4-.45-.63-1.05-.93-1.59-.07-.34-.22-.64-.53-.83-.32-.88-1.12-1.38-1.65-2.08-.25-.33-.63-.56-.83-.91-.71-1.18-1.79-1.43-3.04-1.31-.35,.03-.72,0-.94,.37-1.19,.17-1.89,1.05-2.61,1.87-1.49,1.69-2.59,3.65-3.69,5.6-1.12,1.98-2.21,3.99-3.27,6-.25,.47-.53,.96-.52,1.53-.16,.14-.23,.33-.19,.54-.67,1.07-.74,2.31-1.01,3.49-.46,1.94-.76,3.91-.77,5.92-.19,.26-.22,.54-.07,.83-.24,1-.25,2.02-.23,3.03-.2,.17-.16,.36-.05,.56-.27,.43-.19,.91-.2,1.38-.21,.15-.18,.35-.13,.55-.53,1.35-1.55,1.56-2.81,1.25-.22-.05-.45-.07-.67-.1-.15-.17-.32-.23-.54-.16-1.08-.08-2-.82-3.12-.74-.52,.04-.75-.67-1.32-.49-.16-.14-.34-.17-.54-.15-1.9-.58-3.83-1.03-5.82-1.24-.16-.13-.35-.16-.54-.09-.33-.3-.73-.21-1.11-.2-.25-.23-.53-.22-.83-.12-.99-.35-2.01-.46-3.05-.43-.25-.24-.53-.22-.82-.12-.44-.28-.93-.11-1.39-.15-.26-.18-.54-.14-.82-.05-1.46-.32-2.94-.35-4.42-.27-.27-.21-.55-.17-.83-.02-2.03-.27-4.05-.17-6.08,0-.29-.22-.55,0-.83,.04-1.95-.09-3.88,.18-5.81,.4-.22-.09-.39,0-.56,.12-1.31,.02-2.61,.16-3.87,.54-.2-.16-.38-.08-.55,.06-.39-.09-.75,.03-1.11,.14-.22-.09-.37,.06-.54,.15-.39-.05-.76,.02-1.12,.17-.37-.01-.74-.04-1.01,.29-.62-.23-1.17,.11-1.75,.19-.22-.09-.38,.04-.55,.15-.78-.02-1.56,.01-2.32,.26-.25-.2-.49-.18-.72,.02-1.74-.14-3.43-.55-5.03-1.23-2.31-.98-4.74-1.73-6.82-3.15-.86-.59-1.72-1.36-2.05-2.5-.1-.34-.35-.64-.56-.94-.55-.78-.79-1.64-1.01-2.58-.53-2.21-.71-4.49-1.52-6.65-.33-.88-.22-1.97-.67-2.89,.16-.22,.05-.38-.1-.54-.5-1.82-.91-3.68-1.46-5.46-.73-2.38-1.79-4.61-3.66-6.49-1.37-1.38-2.86-2.41-4.57-3.04-1.9-.7-3.91-1.3-6.01-.84-.3-.25-.56-.02-.83,.06-2.32,.21-3.98,1.52-5.3,3.31-.66,.89-1.27,1.87-1.31,3.05-.06,.18-.12,.36-.19,.54-.22,.28-.22,.61-.17,.94-.29,.27-.43,.6-.37,1-.71,2.21-1.5,4.39-2.01,6.66-.06,.18-.12,.36-.19,.54-.97,2.83-1.93,5.66-2.62,8.58-.17,.15-.19,.34-.2,.55-1.31,3.95-2.29,7.97-2.81,12.11-.58,4.68,1.01,8.47,4.56,11.47,1.65,1.39,3.45,2.56,5.47,3.37,1.29,.52,1.99,.27,2.75-.9,.89-1.35,2.08-2.45,3.34-3.44,.42-.33,.92-.6,1.32-.96,1.23-1.07,2.7-1.78,4.07-2.64,.31-.03,.55-.16,.72-.43,1.48-.65,2.99-1.26,4.5-1.83,2.83-1.08,5.77-1.76,8.72-2.37,1.7-.35,3.42-.63,5.14-.94,.21,.05,.4,0,.57-.13,.75,0,1.49,0,2.2-.29,.2,.16,.37,.09,.54-.05,2.04-.01,4.06-.29,6.09-.44,.21,.14,.38,.02,.56-.07,.28,.12,.56,.02,.83-.03,.19,.16,.36,.13,.53-.03,2.27-.02,4.54-.04,6.81-.06,1.04,0,2.08-.02,3.12-.04,.22,.06,.42,.05,.62-.08,.45,.06,.9,.08,1.34,.18,1.17,.24,1.49,.79,1.33,1.95-.07,.51-.53,.88-.42,1.42-.16,.15-.23,.33-.23,.54-.61,1.15-1.2,2.32-1.85,3.46-1.79,3.12-4.27,5.52-7.42,7.3-4.12,2.33-8.52,3.92-13.06,5.16-1.14,.31-2.36,.32-3.5,.68-.19-.07-.37-.12-.54,.05-.48-.08-.94,.05-1.4,.15-.21-.12-.37,.02-.55,.08-1.39-.02-2.77,.08-4.14,.24-.29-.29-.56-.02-.84,.03-.28-.15-.55-.05-.83,0-.27-.24-.55-.14-.83-.02-.92-.18-1.85-.28-2.79-.17-.16-.18-.33-.16-.51-.02-2.04-.3-4.08-.55-6.11-.91-1.84-.33-3.66-.77-5.5-1.16-.27-.06-.53-.15-.8-.18-1.05-.13-1.31,0-1.7,.94-.19,.46-.38,.94-.5,1.42-.34,1.28-.14,2.03,.93,2.59,2.67,1.39,4,3.79,5.06,6.42,.22,.54,.46,1.08,.69,1.62,.09,.36,.06,.76,.35,1.05,.04,.66,.05,1.33,.14,1.99,.16,1.23-.2,2.41-.33,3.61-.27,.25-.16,.54-.1,.83-.31,1.13,.12,2.16,.75,2.98,.78,1.02,1.66,2.03,2.91,2.56,.13,.18,.33,.49,.49,.4,.26-.16,.1-.46-.04-.69-.02-.04-.07-.05-.11-.08-.14-1.13-.64-2.23-.45-3.37,.16-.96,.04-1.96,.88-2.83,.73-.75,1.39-1.54,2.31-2.07,.22,.02,.4-.07,.55-.23,2.15-.61,4.26-.1,6.38,.25,.16,.14,.34,.17,.54,.13,3.13,1.11,6.17,2.44,9.01,4.19,2.05,1.26,4.11,2.5,6.17,3.76,.23,.27,.53,.4,.87,.48,.36,.5,.92,.77,1.41,1.08,3.93,2.49,7.84,5.01,11.72,7.56,2.78,1.83,5.65,3.51,8.44,5.33,1.56,1.02,3.21,1.22,4.98,.89,.21,.05,.38-.04,.55-.15,.1-.01,.19-.03,.29-.04,.39,.04,.76,0,1.09-.24,1.34-.13,2.6-.57,3.88-.95,.21,.02,.39-.04,.54-.18,.8,.05,1.51-.33,2.25-.51,2.73-.69,5.23-.26,7.54,1.33,.33,.23,.72,.39,1.08,.58,.18,.28,.44,.47,.76,.57,.03,.15,.11,.25,.27,.28,.08,.3,.28,.52,.52,.71,.31,.99,.72,1.92,.36,3.05-.38,1.21-1.07,2.08-2.09,2.76-1.89,1.26-4.03,1.59-6.22,1.71-.19-.13-.38-.11-.58-.02-.35-.18-.74-.11-1.11-.16-.23-.24-.53-.22-.82-.19-.4-.42-1.07,.13-1.44-.39-.14-.36-.44-.42-.77-.44-.69-.48-1.65-.32-2.28-.95-.13-.36-.43-.42-.76-.44-2.18-.95-4.19-2.29-6.51-2.89-.21-.05-.45,.01-.68,.02-.19-.18-.37-.14-.54,.03-1.26-.13-2.44,.32-3.66,.47-1.27,.16-2.55,.3-3.82,.45-.21-.05-.39,.01-.56,.12-2.58,.01-5.16,.02-7.74,.04-.26-.21-.54-.23-.83-.07-.45-.17-.91-.23-1.39-.19-.17-.13-.35-.13-.54-.05-.44-.23-.91-.25-1.39-.22-.17-.13-.35-.12-.54-.07-1.07-.42-2.2-.61-3.33-.77-.5-.36-1.05-.33-1.68-.06,.47,.21,.93,.41,1.4,.62,3.46,1.81,7.04,3.35,10.61,4.9,3.17,1.38,6.41,2.6,9.53,4.1,.37,.18,.78,.25,1.17,.38,.19,.3,.49,.41,.82,.42,.69,.38,1.34,.88,2.16,.98,.23,.29,.52,.43,.89,.44,1.44,.96,3.05,1.6,4.54,2.46,1.49,.87,2.98,1.74,4.45,2.65,2.25,1.4,4.4,2.94,6.4,4.68,1.85,1.61,3.56,3.36,5.06,5.3,.28,.36,.59,.7,.89,1.04,.06,.34,.23,.61,.52,.81,.7,1.55,1.7,2.94,2.34,4.54,.88,2.21,1.47,4.51,1.97,6.83-.09,.21,.04,.38,.13,.55-.14,.88,.16,1.73,.23,2.6,.32,4.27-.38,8.37-1.84,12.37-.16,.14-.22,.33-.23,.54-.54,.32-.48,.96-.74,1.43-1.89,3.51-4.5,6.32-7.94,8.32-.91,.53-1.92,.9-2.92,1.22-1.72,.56-3.46,1.08-5.28,1.27-.22,.02-.43,.14-.65,.21-.19-.07-.37-.14-.54,.04-.48-.12-.93,.07-1.39,.11-.21-.1-.4-.06-.57,.1-2.24-.01-4.49,.12-6.72-.2-1.26-.18-2.52-.39-3.78-.59-.15-.19-.35-.18-.55-.14-1.14-.33-2.37-.39-3.39-1.06-.72-.47-1.51-.7-2.31-.94-.49-.15-.93-.39-1.33-.81-.45-.47-1.16-.7-1.78-.99-.74-.34-1.43-.68-1.95-1.38-.37-.5-.96-.85-1.51-1.18-1.6-.96-2.81-2.29-3.82-3.83-.15-.23-.31-.48-.53-.63-.68-.44-1.02-1.11-1.41-1.79-.61-1.04-1.35-2-2.02-3-.53-.78-.97-1.59-1.32-2.48-.54-1.37-1.48-2.6-1.95-3.98-.54-1.6-1.3-3.14-1.64-4.78-.3-1.42-.53-2.86-.87-4.28,.05-.21,0-.4-.15-.56-.32-2.59-1.08-5.09-1.58-7.64-.28-1.43-.66-2.84-1-4.25,.04-.46-.16-.44-.46-.23-1.05,.48-2.13,.91-3.14,1.45-2.58,1.39-5.27,2.17-8.22,1.85-.15-.17-.33-.24-.55-.17-2.14-.4-3.92-1.49-5.43-3-1.29-1.28-2.61-2.54-3.37-4.27-.22-.51-.74-.89-1.07-1.36-.71-1.01-.9-2.26-1.44-3.35-.96-1.94-1.08-4.1-1.61-6.15,.2-.21,.04-.38-.07-.55,0-2.12-.01-4.25-.02-6.37,.22-.26,.23-.53,.07-.83,.17-.45,.23-.91,.19-1.39,.13-.17,.13-.35,.05-.54,.25-.44,.21-.92,.22-1.39,.13-.26,.16-.54,.1-.82,.19-.35,.19-.73,.18-1.12,.13-.26,.16-.54,.1-.82,.26-.33,.22-.72,.21-1.1,.21-.16,.18-.35,.07-.56,.31-1.02,.57-2.05,.54-3.13,.38-.36,.26-.85,.34-1.3,.46-1.74,.91-3.49,1.21-5.27,.2-.13,.24-.32,.19-.54,.52-2.05,.47-4.04-.35-6.04-.34-.82-.89-1.53-1.42-2.08-1.47-1.54-2.28-3.44-3.24-5.24-.69-1.31-.68-2.89-.94-4.36-.11-.63-.17-1.27-.25-1.91,.21-.29,.07-.56-.02-.84-.19-1.36-.47-1.75-1.82-1.95-1.14-.17-2-.65-2.75-1.53-1.02-1.21-2.29-2.2-3.25-3.49-.68-.91-1.67-1.54-2.52-2.29-1.54-1.36-3.06-2.78-4.37-4.37-.46-.55-1.18-.67-1.63-1.22-1.44-1.71-3.23-2.99-5.17-4.09-.39-.22-.74-.45-1.02-.85-.54-.79-1.57-.84-2.35-1.28-.95-.53-2.12-.67-3.2-.98-.45-.13-.71,.03-.77,.5-.11,.91-.35,1.81-.23,2.73-.25,.21-.04,.38,.05,.55-.07,1.05,.45,1.95,.84,2.85,2.64,6.07,6.22,11.51,11.15,15.99,2.21,2.01,4.35,4.1,6.7,5.95,.87,.68,1.84,1.18,2.78,1.73,2.73,1.62,3.5,4.29,2.49,7.26-.97,2.86-2.54,5.36-4.63,7.51-2.86,2.94-6.07,5.47-9.57,7.62-2.03,1.25-4.16,2.33-6.25,3.45-1.46,.78-3.2,.54-4.77-.15-.38-.17-.47-.53-.58-.89-.16-.5-.07-1.01-.12-1.51,.28-.23,.14-.55,.19-.83,.09-.87,.79-1.38,1.2-2.06,1.13-1.86,2.59-3.43,4.12-4.96,.67-.67,1.17-1.52,1.81-2.23,2.27-2.52,4.6-4.98,6.82-7.53,.33-.38,.87-.5,1.06-1,.18-.04,.27-.18,.27-.34,0-.13-.12-.17-.25-.13-.81-.66-1.7-1.21-2.34-2.07-.29-.39-.74-.74-1.2-.91-.58-.22-1.04-.6-1.46-.98-1.84-1.68-3.94-2.98-5.99-4.38-1.21-.82-2.3-1.81-3.51-2.64-.4-.28-.91-.25-1.21-.56-1.31-1.36-3.17-1.89-4.57-3.04-.86-.71-1.85-1.09-2.73-1.68-.56-.38-1.2-.6-1.62-1.19-.39-.55-1.14-.52-1.7-.8-.9-.46-1.51-1.36-2.44-1.69-1.74-.61-3.11-1.86-4.78-2.61-1.53-.69-3.05-1.54-4.49-2.42-1.78-1.09-3.73-1.81-5.47-2.95-.24-.15-.63-.07-.84-.35-.2-.25-.42-.46-.85-.48,.07,.6,.25,1.12,.6,1.59,.2,1.25,.93,2.27,1.57,3.3,1.57,2.54,3.31,4.97,5.35,7.15,2.39,2.57,5.15,4.59,8.67,5.35,.15,.16,.34,.21,.55,.15,.53,.24,1.09,.35,1.67,.38,.16,.15,.35,.14,.54,.07,.34,.24,.74,.19,1.12,.22,.24,.24,.52,.24,.82,.13,.44,.24,.92,.15,1.39,.15,.17,.13,.35,.13,.54,.05,1.05,.4,2.17,.27,3.25,.46,.75,.13,1.53,.22,2.3,.3,0,.11-.01,.22-.02,.33-1.26,.37-2.55,.68-3.78,1.11-2.35,.82-4.77,1.41-7.18,2.03-3.77,.96-7.61,1.54-11.47,2.01-1.37,.17-2.76,.06-4.12,.36-.29-.24-.56-.05-.84,.02-1.46-.03-2.93-.06-4.39-.09-.2-.14-.39-.09-.59,0-1.93-.24-3.86-.46-5.78-.72-1.12-.15-2.23-.37-3.34-.56-.14-.21-.34-.19-.55-.15-1.13-.31-2.21-.82-3.43-.76-.1,0-.21-.16-.31-.25-.26-.29-.58-.42-.96-.4-.65-.22-1.31-.45-1.96-.67-.13-.4-.48-.39-.81-.44-1.79-.62-3.19-2-5.02-2.54-.54-.16-.67-.79-1.12-.94-1.37-.46-2.13-1.78-3.43-2.32-.32-.13-.52-.5-.77-.76-1.07-1.14-2.2-2.2-3.5-3.07-.38-.25-.74-.55-1.05-.89-.98-1.07-2.15-1.9-3.28-2.78-.74-.58-1.2-1.41-2.09-1.91-1.09-.61-2.02-1.5-3.01-2.29-1.55-1.24-2.96-2.66-4.68-3.68-1.58-.93-2.86-2.29-4.57-3.05-.58-.26-1.3-.48-1.59-1.2-.04-.11-.21-.17-.33-.24-1.24-.7-2.59-1.2-3.71-2.11-.21-.29-.51-.41-.85-.45-.82-.41-1.6-.85-2.35-1.39-.79-.57-1.88-.58-2.68-1.2-.16-.36-.46-.47-.83-.46-.14-.03-.28-.06-.42-.08-.21-.27-.47-.4-.86-.26,.18,.42,.36,.81,.79,1.01,1.3,1.93,2.57,3.88,3.92,5.78,1.29,1.83,2.47,3.71,3.61,5.63,.23,.38,.41,.81,.78,1.09,.08,.34,.19,.67,.51,.87,.74,1.94,1.9,3.68,2.76,5.56,.54,1.19,1.14,2.36,1.72,3.54,.01,.33,.24,.49,.48,.65,.26,.69,.87,1.06,1.43,1.44,2.51,1.71,4.77,3.73,7.01,5.77,2.61,2.38,5.21,4.77,7.76,7.23,4.01,3.87,7.51,8.14,10.53,12.85,3.4,5.3,6.21,10.86,8.2,16.83,1.36,4.08,2.34,8.24,2.87,12.51-.05,.21,.02,.39,.13,.56-.04,.93,.05,1.85,.2,2.76-.07,.2-.02,.38,.08,.56,0,2.67,0,5.35,0,8.02-.19,.17-.19,.36-.04,.56-.24,1.65-.45,3.31-.48,4.99-.23,.25-.22,.53-.12,.83-.24,.34-.18,.73-.16,1.11-.23,.24-.21,.53-.18,.82-.28,1.19-.52,2.39-.65,3.6-.17,.16-.19,.34-.1,.55-.57,2.02-1.12,4.04-1.54,6.09-.15,.15-.2,.34-.19,.54-.3,1.17-.97,2.24-.98,3.49-.34,.23-.34,.59-.36,.94-.46,.57-.54,1.27-.66,1.95-.15,.15-.24,.32-.2,.54-.54,1.3-1.08,2.6-1.63,3.9-.92,2.18-2.17,4.19-3.21,6.32-.3,.21-.41,.53-.5,.86-.61,.46-.79,1.22-1.21,1.81-1.86,2.6-3.62,5.28-5.64,7.75-.88,1.08-1.87,2.14-2.91,3.11-3.58,3.31-7.13,6.65-10.81,9.84-2.56,2.22-5.32,4.2-7.96,6.32-2.52,2.03-5.09,4-7.61,6.03-1.81,1.46-3.66,2.89-5.41,4.43-1.98,1.74-3.61,3.77-4.81,6.13-.71,1.38-.66,2.92-.93,4.39-.06,.32-.04,.65-.1,.96-.21,1-1.17,1.33-1.96,.67-.28-.23-.53-.52-.71-.82-.91-1.59-1.86-3.17-2.8-4.74-.7-1.16-1.34-2.42-2.07-3.57-.74-1.18-1.27-2.48-2.16-3.57-.09-.26-.07-.6-.49-.59-1.41-2.98-3.51-5.53-5.31-8.26-.06-.29-.19-.52-.48-.64-.5-1.16-1.38-2.07-2.07-3.11-.1-.15-.29-.26-.35-.42-.54-1.35-1.42-2.5-2.25-3.67-1.14-1.6-1.76-3.47-2.63-5.21-.67-1.34-1.39-2.65-1.95-4.06-.84-2.15-1.14-4.39-1.54-6.63-.38-2.13-.31-4.29-.55-6.43,.29-.29,.05-.57-.03-.85,.03-.36,.06-.72,.09-1.07,.13-.2,.1-.4-.03-.59,.27-2.25,.54-4.5,.82-6.76,.39-.35,.26-.84,.36-1.27,.24-1.04,.35-2.12,.77-3.11,.25-.19,.37-.44,.35-.76,.39-1.5,1.03-2.9,1.54-4.35,.32-.22,.37-.56,.4-.9,.2-.59,.25-1.23,.68-1.73,.36-.13,.43-.43,.44-.76,.47-1.44,1.59-2.59,1.87-4.12,1.2-.99,1.09-2.77,2.27-3.76,.49-.41,.37-1.1,.72-1.6,1.11-1.62,2.26-3.23,3.17-4.95,1.06-2.01,2.62-3.7,3.55-5.8,.48-1.09,1.4-1.97,2.08-2.99,1.08-1.63,2.14-3.29,3.2-4.92,1.11-1.71,2.4-3.31,3.28-5.17,.28-.6,.6-1.2,1.16-1.66,.5-.4,.66-1.08,.97-1.64,.87-1.56,1.86-3.09,2.88-4.53,.98-1.39,1.49-3.08,2.74-4.29,.25-.24,.33-.65,.5-.98,.38-.74,.52-1.63,1.32-2.12,.43-1.6,1.76-2.73,2.23-4.31,.14-.47,.28-.94,.69-1.27,.1-.08,.2-.2,.25-.33,.87-1.96,1.73-3.92,2.6-5.88,.17-.14,.24-.33,.24-.54,.07-.75,.79-1.21,.86-1.95,.16-.14,.24-.32,.21-.54,.35-1.25,1.06-2.41,1.01-3.78-.01-.32,.03-.64,.02-.97-.05-1.59-.56-2.16-2.25-2.55-.22-.15-.41-.06-.59,.09-.38-.05-.75,0-1.1,.15-.21-.03-.39,.03-.55,.16-2.29,.29-4.34,1.24-6.31,2.39-2.57,1.5-5.2,2.89-7.66,4.55-4.19,2.84-8.49,5.55-12.47,8.71-5.25,4.17-10.23,8.63-15.02,13.31-1.92,1.88-3.8,3.79-5.52,5.85-1.67,2.01-3.22,4.11-4.56,6.36-.49,.81-1.12,1.54-1.32,2.5-.32,.2-.41,.51-.44,.85-.8,1.36-1.53,2.74-1.81,4.31-.34,.23-.42,.57-.41,.94-.39,.59-.53,1.26-.6,1.95-.13,.16-.22,.33-.14,.54-.3,.51-.37,1.09-.44,1.67-.14,.16-.16,.35-.14,.55-.58,2.27-1.01,4.55-.6,6.91-.06,.22,.03,.39,.16,.55,.14,1.38,.66,2.64,1.19,3.89,.53,1.26,1.12,2.5,1.7,3.75,.09,.21,.26,.41-.02,.59-.19,.12-.3-.1-.45-.16-.77-.32-1.38-.79-1.92-1.45-1.6-1.95-3.68-3.41-5.47-5.17-2.06-2.03-3.98-4.2-6.12-6.14-1.74-1.58-3.16-3.47-4.95-4.99-.17-.39-.4-.71-.85-.81-1.9-2.21-3.76-4.46-5.7-6.63-1.31-1.46-2.09-3.27-3.3-4.77-.95-1.18-1.54-2.52-2.28-3.8-.45-.78-.72-1.66-1.09-2.48-.1-.23-.12-.56-.49-.58-.05-.12-.09-.25-.14-.37-.68-2-1.37-4-2.05-6,.04-.22-.03-.4-.18-.55-.39-2.01-1.02-3.96-1.22-6.01-.08-.86-.2-1.71-.31-2.57-.04-.19-.08-.37-.12-.56v-4.43c.26-.27,.07-.55,0-.83,.27-1.75,.54-3.51,.81-5.26,.15-.16,.21-.34,.13-.55,.26-.52,.36-1.09,.43-1.66,.18-.15,.18-.34,.16-.55,.49-1.41,1.12-2.78,1.53-4.19,.45-1.53,1.27-2.86,1.87-4.29,.52-1.25,1.28-2.47,2.09-3.6,.46-.64,.68-1.4,1.17-2.01,1.35-1.7,2.51-3.53,4.07-5.09,1.72-1.73,3.6-3.23,5.52-4.71,1.79-1.38,3.73-2.52,5.78-3.42,3.95-1.73,8.07-2.91,12.37-3.41,4.17-.49,8.34-.39,12.51-.04,.36,.03,.73,.01,1.1,.02,.26,.15,.54,.15,.82,.09,1.09,.32,2.22,.29,3.33,.45,.16,.15,.35,.13,.54,.08,.34,.25,.74,.18,1.12,.19,.25,.18,.52,.24,.82,.15,1.09,.34,2.21,.52,3.33,.7,.23,.25,.52,.22,.82,.2,.3,.16,.62,.26,.97,.16,.36,.31,.78,.42,1.25,.39,1.38,.42,2.72,.99,4.16,1.2,.15,.15,.33,.21,.54,.18,.59,.38,1.24,.62,1.95,.64,.14,.16,.33,.21,.54,.22,1.87,.73,3.74,1.44,5.6,2.19,3.95,1.6,7.79,3.42,11.55,5.42,3.31,1.76,6.61,3.55,9.91,5.33,.24,.13,.47,.28,.76,.29,.08,.11,.17,.21,.31,.12,.12-.08,.12-.22,.05-.35-.1-1.66-1.06-2.81-2.35-3.69-1.82-1.25-3.65-2.47-5.53-3.62-3.36-2.07-6.74-4.1-10.21-5.97-1.69-.91-3.35-1.9-5.12-2.64-.19-.32-.51-.37-.84-.42-1.5-.67-3-1.38-4.43-2.16-1.23-.68-2.56-1.13-3.82-1.72-1.46-.68-2.99-1.35-4.53-1.9-1.27-.46-2.64-.78-3.83-1.5-.15-.16-.33-.23-.54-.2-.48-.21-1.08-.07-1.48-.59-.25-.32-.74-.36-1.14-.4-.58-.06-1.06-.27-1.55-.56-.38-.23-.83-.46-1.26-.48-1.32-.06-2.41-.79-3.62-1.15-.23-.32-.55-.36-.91-.32-1.27-.19-2.3-1.23-3.67-1.09-.78-.78-1.87-.91-2.83-1.14-1.39-.33-2.64-1.22-4.14-1.1-.1,0-.22-.15-.32-.23-.25-.26-.55-.42-.92-.38-.81,0-1.46-.51-2.22-.67-.15-.16-.34-.2-.55-.17-1.23-.41-2.49-.75-3.68-1.26-.76-.33-1.64,0-2.31-.56-.24-.3-.57-.36-.93-.32-3.63-1.21-7.24-2.48-11.07-2.93-.17-.12-.35-.17-.54-.08-.34-.21-.73-.18-1.11-.21-.16-.2-.34-.21-.55-.09-.43-.27-.91-.19-1.38-.2-.24-.28-.55-.14-.83-.13-.35-.21-.74-.13-1.11-.12-.25-.23-.53-.22-.83-.12-.34-.24-.73-.18-1.11-.16-.25-.23-.53-.22-.83-.12-.34-.24-.73-.18-1.11-.16-.25-.23-.53-.22-.83-.12-.34-.24-.73-.18-1.11-.16-.25-.23-.53-.22-.83-.11-.34-.25-.73-.18-1.11-.16-.25-.24-.53-.24-.82-.1-.43-.26-.91-.2-1.38-.21-.16-.21-.35-.18-.56-.07-.43-.26-.91-.2-1.38-.21-.16-.21-.35-.18-.56-.07-.43-.26-.91-.2-1.38-.21-.24-.27-.55-.14-.83-.13-.35-.21-.73-.14-1.11-.14-.25-.27-.54-.17-.83-.1-.34-.24-.73-.18-1.11-.16-.25-.23-.53-.22-.83-.12-.34-.24-.73-.18-1.11-.16-.25-.23-.53-.22-.83-.12-.34-.24-.73-.18-1.11-.16-.25-.23-.53-.22-.83-.12-.34-.24-.73-.18-1.11-.15-.25-.24-.53-.22-.82-.12-.43-.28-.91-.17-1.38-.19-.16-.21-.35-.18-.56-.07-.43-.26-.91-.2-1.38-.21-.16-.21-.35-.18-.56-.07-.43-.26-.91-.2-1.38-.21-.16-.21-.35-.18-.56-.07-.43-.26-.91-.2-1.38-.21-.24-.27-.55-.14-.83-.13-.35-.21-.73-.14-1.11-.14-.25-.27-.54-.17-.83-.1-.34-.24-.73-.18-1.11-.16-.25-.23-.53-.22-.83-.12-.34-.24-.73-.18-1.11-.16-.25-.23-.53-.22-.83-.12-.34-.24-.73-.18-1.11-.16-.25-.23-.53-.22-.83-.11-.34-.25-.73-.18-1.11-.16-.25-.24-.53-.24-.82-.1-.43-.26-.91-.2-1.38-.21-.16-.21-.35-.18-.56-.07-.43-.26-.91-.2-1.38-.21-.16-.21-.35-.18-.56-.07-.43-.26-.91-.2-1.38-.21-.16-.21-.35-.18-.56-.07-.43-.27-.91-.19-1.38-.2-.24-.28-.55-.14-.83-.13-.35-.21-.74-.13-1.11-.12-.25-.23-.53-.22-.83-.12-.34-.24-.73-.18-1.11-.16-.25-.23-.53-.22-.83-.12-.34-.24-.73-.18-1.11-.16-.25-.23-.53-.22-.83-.12-.34-.24-.73-.18-1.11-.16-.25-.23-.53-.22-.83-.11-.34-.25-.73-.18-1.11-.16-.25-.24-.53-.24-.82-.1-.43-.26-.91-.2-1.38-.21-.16-.21-.35-.18-.56-.07-.43-.26-.91-.2-1.38-.21-.16-.21-.35-.18-.56-.07-.43-.26-.91-.2-1.38-.21-.24-.27-.55-.14-.83-.13-.35-.21-.73-.14-1.11-.14-.25-.27-.54-.17-.83-.1-.34-.24-.73-.18-1.11-.16-.25-.23-.53-.22-.83-.12-.34-.24-.73-.18-1.11-.16-.25-.23-.53-.22-.83-.12-.34-.24-.73-.18-1.11-.16-.25-.23-.53-.22-.83-.12-.34-.24-.73-.18-1.11-.15-.25-.24-.53-.22-.82-.12-.43-.28-.91-.17-1.38-.19-.16-.21-.35-.18-.56-.07-.43-.26-.91-.2-1.38-.21-.16-.21-.35-.18-.56-.07-.43-.26-.91-.2-1.38-.21-.16-.21-.35-.18-.56-.07-.43-.26-.91-.2-1.38-.21-.24-.27-.55-.14-.83-.13-.35-.21-.73-.14-1.11-.14-.25-.27-.54-.17-.83-.1-.34-.24-.73-.18-1.11-.16-.25-.23-.53-.22-.83-.12-.34-.24-.73-.18-1.11-.16-.25-.23-.53-.22-.83-.12-.34-.24-.73-.18-1.11-.16-.25-.23-.53-.22-.83-.11-.34-.25-.73-.18-1.11-.16-.25-.24-.53-.24-.82-.1-.43-.26-.91-.2-1.38-.21-.16-.21-.35-.18-.56-.07-.43-.26-.91-.2-1.38-.21-.16-.21-.35-.18-.56-.07-.43-.26-.91-.2-1.38-.21-.16-.21-.35-.18-.56-.07-.43-.27-.91-.19-1.38-.2-.24-.28-.55-.14-.83-.13-.35-.21-.74-.13-1.11-.12-.25-.23-.53-.22-.83-.12-.34-.24-.73-.18-1.11-.16-.25-.23-.53-.22-.83-.12-.34-.24-.73-.18-1.11-.16-.25-.23-.53-.22-.83-.12-.34-.24-.73-.18-1.11-.16-.25-.23-.53-.22-.83-.11-.34-.25-.73-.18-1.11-.16-.25-.24-.53-.24-.82-.1-.43-.26-.91-.2-1.38-.21-.16-.21-.35-.18-.56-.07-.43-.26-.91-.2-1.38-.21-.16-.21-.35-.18-.56-.07-.43-.26-.91-.2-1.38-.21-.24-.27-.55-.14-.83-.13-.35-.21-.73-.14-1.11-.14-.25-.27-.54-.17-.83-.1-.34-.24-.73-.18-1.11-.16-.25-.23-.53-.22-.83-.12-.34-.24-.73-.18-1.11-.16-.25-.23-.53-.22-.83-.12-.34-.24-.73-.18-1.11-.16-.25-.23-.53-.22-.83-.12-.34-.24-.73-.18-1.11-.15-.25-.24-.53-.22-.82-.12-.43-.28-.91-.17-1.38-.19-.16-.21-.35-.18-.56-.07-.43-.26-.91-.2-1.38-.21-.16-.21-.35-.18-.56-.07-.43-.26-.91-.2-1.38-.21-.16-.21-.35-.18-.56-.07-.43-.26-.91-.2-1.38-.21-.24-.27-.55-.14-.83-.13-.35-.21-.73-.14-1.11-.14-.25-.27-.54-.17-.83-.1-.34-.24-.73-.18-1.11-.16-.25-.23-.53-.22-.83-.12-.34-.24-.73-.18-1.11-.16-.25-.23-.53-.22-.83-.12-.34-.24-.73-.18-1.11-.16-.25-.23-.53-.22-.83-.11-.34-.25-.73-.18-1.11-.16-.25-.24-.53-.24-.82-.1-.43-.26-.91-.2-1.38-.21-.16-.21-.35-.18-.56-.07-.43-.26-.91-.2-1.38-.21-.16-.21-.35-.18-.56-.07-.43-.26-.91-.2-1.38-.21-.16-.21-.35-.18-.56-.07-.43-.27-.91-.19-1.38-.2-.24-.28-.55-.14-.83-.13-.35-.21-.74-.13-1.11-.12-.25-.23-.53-.22-.83-.12-.34-.24-.73-.18-1.11-.16-.25-.23-.53-.22-.83-.12-.34-.24-.73-.18-1.11-.16-.25-.23-.53-.22-.83-.12-.34-.24-.73-.18-1.11-.16-.25-.23-.53-.22-.83-.11-.34-.25-.73-.18-1.11-.16-.25-.24-.53-.24-.82-.1-.43-.26-.91-.2-1.38-.21-.16-.21-.35-.18-.56-.07-.43-.26-.91-.2-1.38-.21-.16-.21-.35-.18-.56-.07-.43-.26-.91-.2-1.38-.21-.24-.27-.55-.14-.83-.13-.35-.21-.73-.14-1.11-.14-.25-.27-.54-.17-.83-.1-.34-.24-.73-.18-1.11-.16-.25-.23-.53-.22-.83-.12-.34-.24-.73-.18-1.11-.16-.25-.23-.53-.22-.83-.12-.34-.24-.73-.18-1.11-.16-.25-.23-.53-.22-.83-.12-.34-.24-.73-.18-1.11-.15-.25-.24-.53-.22-.82-.12-.43-.28-.91-.17-1.38-.19-.16-.21-.35-.18-.56-.07-.43-.26-.91-.2-1.38-.21-.16-.21-.35-.18-.56-.07-.43-.26-.91-.2-1.38-.21-.16-.21-.35-.18-.56-.07-.43-.26-.91-.2-1.38-.21-.24-.27-.55-.14-.83-.13-.35-.21-.73-.14-1.11-.14-.25-.27-.54-.17-.83-.1-.34-.24-.73-.18-1.11-.16-.25-.23-.53-.22-.83-.12-.34-.24-.73-.18-1.11-.16-.25-.23-.53-.22-.83-.12-.34-.24-.73-.18-1.11-.16-.25-.23-.53-.22-.83-.11-.34-.25-.73-.18-1.11-.16-.25-.24-.53-.24-.82-.1-.43-.26-.91-.2-1.38-.21-.16-.21-.35-.18-.56-.07-.43-.26-.91-.2-1.38-.21-.16-.21-.35-.18-.56-.07-.43-.26-.91-.2-1.38-.21-.16-.21-.35-.18-.56-.07-.43-.27-.91-.19-1.38-.2-.24-.28-.55-.14-.83-.13-.35-.21-.74-.13-1.11-.12-.25-.23-.53-.22-.83-.12-.34-.24-.73-.18-1.11-.16-.25-.23-.53-.22-.83-.12-.34-.24-.73-.18-1.11-.16-.25-.23-.53-.22-.83-.12-.34-.24-.73-.18-1.11-.16-.25-.23-.53-.22-.83-.11-.34-.25-.73-.18-1.11-.16-.25-.24-.53-.24-.82-.1-.43-.26-.91-.2-1.38-.21-.16-.21-.35-.18-.56-.07-.24-.17-.52-.16-.79-.2-.81-.14-1.09-.5-1.04-1.31,.04-.72,.3-.98,1.22-.9,1.6,.13,3.19,.35,4.77,.58,5.73,.8,11.45,1.63,17.18,2.44,6.86,.98,13.72,1.96,20.59,2.92,6.18,.87,12.37,1.71,18.55,2.57,4.96,.7,9.91,1.42,14.86,2.12,4.87,.69,9.74,1.34,14.6,2.03,6.95,.98,13.9,1.98,20.86,2.96,6.87,.96,13.74,1.9,20.6,2.87,6.96,.98,13.91,1.97,20.86,2.95,5.46,.77,10.91,1.51,16.37,2.29,6.3,.9,12.58,1.9,18.89,2.71,3.32,.43,6.6,1.1,9.95,1.29,.19,.14,.38,.11,.58,.03,.34,.23,.73,.18,1.11,.16,.25,.23,.53,.22,.83,.12,.34,.24,.73,.18,1.11,.16,.25,.23,.53,.22,.83,.12,.34,.24,.73,.18,1.11,.16,.34,.32,.73,.07,1.1,.09,.35,.2,.74,.18,1.12,.17,.26,.15,.54,.15,.82,.09,.35,.21,.73,.2,1.12,.18,.26,.17,.54,.13,.82,.05,1.59,.43,3.24,.43,4.86,.7,1.98,.33,3.96,.6,5.94,.9,.24,.24,.52,.26,.82,.15,1.08,.37,2.2,.55,3.34,.67,.23,.24,.51,.26,.81,.17,.37,.28,.8,.25,1.22,.22,.34,.41,.85,.25,1.27,.38,2.07,.55,4.14,1.08,6.21,1.66,.45,.13,.89,.2,1.35,.19,.27,.33,.63,.39,1.02,.35,2.2,.75,4.4,1.48,6.65,2.06,.15,.16,.34,.2,.55,.17,.58,.43,1.27,.52,1.95,.65,.15,.15,.34,.2,.54,.18,.58,.43,1.27,.51,1.94,.67,.14,.17,.33,.22,.55,.18,.34,.47,.83,.46,1.33,.41,.22,.3,.52,.42,.89,.41,1.4,.65,2.83,1.21,4.34,1.54,.23,.3,.55,.39,.91,.39,1.92,.93,3.95,1.58,5.93,2.38,3.62,1.47,7.24,2.95,10.85,4.47,3.06,1.28,6.08,2.64,9.12,3.96,2.88,1.26,5.62,2.8,8.33,4.39,3.81,2.24,7.61,4.5,11.42,6.73,.31,.18,.68,.24,1.03,.36,.12,.19,.27,.36,.51,.23,.12-.06,.05-.21-.06-.29-1.2-2.41-2.24-4.93-3.66-7.21-1.01-1.63-1.72-3.49-3.18-4.83-1.48-3.04-4.19-5.19-5.79-8.15-.25-.46-.64-1-1.31-1.08-.09-.06-.18-.12-.28-.18-.71-.94-1.66-1.62-2.75-1.97-.55-.18-1.03-.49-1.58-.65-.21-.34-.57-.33-.91-.38-1.97-.83-4.07-1.15-6.16-1.5-.62-.1-1.22-.35-1.87-.26-.26-.15-.54-.15-.82-.09-.35-.21-.73-.19-1.12-.19-.16-.14-.33-.21-.54-.1-.43-.28-.91-.21-1.38-.22-.16-.21-.35-.18-.56-.07-.43-.27-.91-.19-1.38-.2-.24-.28-.55-.14-.83-.13-.35-.21-.73-.14-1.11-.12-.25-.23-.53-.22-.83-.12-.34-.24-.73-.18-1.11-.16-.25-.23-.53-.22-.83-.12-.34-.24-.73-.18-1.11-.16-.25-.23-.53-.22-.83-.12-.34-.24-.73-.18-1.11-.16-.25-.23-.53-.22-.83-.11-.34-.25-.73-.18-1.11-.16-.25-.24-.53-.24-.82-.1-.43-.26-.91-.2-1.38-.21-.16-.21-.35-.18-.56-.07-.43-.26-.91-.2-1.38-.21-.16-.21-.35-.18-.56-.07-.43-.26-.91-.2-1.38-.21-.24-.27-.55-.14-.83-.13-.35-.21-.73-.14-1.11-.15-.14-.21-.35-.18-.55-.15q-1.94-1.11-.22-2.56c.36,.11,.71,.15,1.06-.04,.35,.03,.71,.05,1.06,.08,.22,.14,.42,.09,.6-.06,2.69,.29,5.4,.16,8.09,.27,3.8,.16,7.6,.34,11.4,.5,.41,.02,.83,0,1.24,.01,.23,.3,.58-.02,.83,.15,.94,.06,1.87,.13,2.81,.19,1.4,.09,1.81-.17,2.39-1.49,.42-.97,.51-2.02,.83-3.03,.55-1.72,1.6-2.99,3-4.02,2.96-2.19,5.88-4.44,8.92-6.5,1.77-1.2,3.85-1.87,5.88-2.56,1.26-.43,2.55-.75,3.82-1.13,.22,.07,.39-.04,.55-.15,.38,.07,.74-.03,1.1-.14,.21,.05,.39,0,.56-.13,.84,.07,1.66-.1,2.48-.17,.21,.1,.4,.07,.57-.07,.35,0,.71,.02,1.06,.03,.21,.14,.4,.1,.59-.03,1.56,.14,3.13,.23,4.7,.21,.27,.06,.55,.12,.82,.18,1.78,.05,3.51,.46,5.27,.64,.17,.14,.35,.13,.54,.06,1.57,.46,3.13,.96,4.71,1.37,2.85,.75,5.5,1.98,8.05,3.4,4.24,2.35,7.98,5.37,11.24,8.96,2.07,2.28,3.81,4.79,5.37,7.44,2.22,3.78,3.99,7.78,6.02,11.65,1.25,2.39,3.2,3.9,5.51,5.12,4.05,2.14,8.07,4.31,12.07,6.53,3.46,1.92,6.91,3.86,10.29,5.92,3.44,2.09,6.75,4.37,10.03,6.72,4.51,3.23,8.86,6.68,13.39,9.87,.5,.35,.93,.75,1.16,1.33-.02,.19-.03,.37-.05,.56-.32,.71-.76,1.33-1.31,1.88-2.85,2.89-5.72,5.76-8.5,8.71-1.42,1.5-3.03,2.85-4.12,4.65-.32,.17-.45,.46-.49,.81-.61,.69-.98,1.53-1.47,2.29-.17,.27-.23,.42-.04,.7,.23,.33,.51,.45,.8,.25,.79-.56,1.78-.63,2.58-1.16,.28-.03,.55-.08,.69-.38,1.41-.38,2.58-1.19,3.74-2.03,.35-.03,.58-.23,.74-.52,2.17-1.61,4.46-3.07,6.36-5.02,1.6-1.64,3.19-3.28,4.53-5.16,.3-.21,.43-.52,.49-.87,.28-.65,.56-1.3,.84-1.95,.16-.15,.21-.33,.18-.54,.69-2.24,.25-3.26-1.71-4.53-1.58-1.02-2.98-2.34-4.61-3.25-1.41-.79-2.23-2.21-3.69-2.91-.53-.25-.83-.94-1.3-1.37-2.39-2.19-4.45-4.65-6.21-7.37-.73-1.13-1.71-2.1-2.31-3.33-.63-1.3-1.3-2.59-1.84-3.93-.31-.75-.84-1.34-1.14-2.09-.43-1.08-.76-2.18-.99-3.31,.12-.24-.04-.38-.18-.54-.41-1.39-.49-2.83-.11-4.19,.23-.83,.75-1.73,1.76-2.04,.48-.15,.97-.26,1.46-.39,.18,.18,.37,.13,.56,0,2.18,.21,3.89,1.5,5.66,2.58,3.32,2.03,6.44,4.35,9.28,7.03,2.29,2.17,4.47,4.45,6.72,6.65,1.05,1.03,2.16,2,3.22,3.01,.72,.68,1.68,.91,2.5,1.4,.32,.19,.76,.27,.96-.49,.18-.69,.76-1.32,.9-2.08,.14-.74,.2-1.48-.68-1.87-.12-.29-.34-.44-.64-.49-1.76-1.01-3.37-2.26-5.03-3.43-1.33-.93-2.47-1.99-3.4-3.31-2.12-3.02-3.17-6.36-2.98-10.07,.03-.68,.02-1.37,.03-2.06,.15-.26,.15-.54,.09-.82,.21-.35,.2-.73,.19-1.12,.13-.16,.23-.33,.11-.54,.29-1.13,.73-2.23,.82-3.41,.24-.19,.38-.42,.35-.74,.14-.73,.39-1.41,.78-2.08,.39-.67,.54-1.47,.8-2.21,.25-.16,.42-.38,.39-.7,.66-1.67,1.51-3.26,1.99-5,.16-.15,.21-.33,.16-.54,.55-1.32,.78-2.76,1.44-4.04,.31-.61-.11-1.37,.43-1.92,.32-.24,.34-.6,.36-.96,.64-1.79,1.35-3.58,1.24-5.54,.29-.35,.06-.74,.08-1.1,.51-.8,.44-1.78,.98-2.62,1.64-2.54,4.03-3.76,6.87-4.31,.49-.09,.99-.17,1.49-.26,.37,.24,.74,.04,1.11,0,.91,.16,1.83,.28,2.76,.27,.15,.21,.35,.18,.56,.12,.37,.21,.78,.26,1.2,.21,.29,.27,.61,.42,1.02,.37,.2,.12,.38,.27,.59,.34,4.76,1.75,7.57,5.29,9.4,9.87,1.2,3,1.6,6.17,2.3,9.28-.05,.21,.03,.39,.15,.56-.03,.78,.18,1.5,.47,2.21-.17,.24,.02,.38,.15,.54,.84,3.66,2.37,6.96,4.99,9.7,.63,.55,.79,.54,1.29,0,.15-.24,.54-.21,.6-.52,.23-1.16,1.21-1.96,1.43-3.16,.14-.78,.71-1.45,.9-2.26,.08-.36,.23-.7,.18-1.07,.34-.26,.36-.63,.36-1,.33-1.09,.65-2.18,.66-3.33,.24-.25,.22-.53,.12-.82,.27-.44,.21-.92,.16-1.39,.14-.27,.18-.54,.06-.83,.32-1.94,.28-3.87-.03-5.8,.08-.18,.17-.37-.03-.54,.01-2.08-.46-4.09-.92-6.1,.07-.22-.05-.38-.17-.54,.09-1.04-.52-1.91-.71-2.87-.34-1.68-.75-3.33-1.17-4.99-.21-.82-.53-1.62-.83-2.37-.47-1.2-.49-2.46-.87-3.65-1.17-3.64-1.72-7.46-3.2-11.01-.66-1.58-.8-3.28-1.37-4.85-.8-2.22-.93-4.57-1.49-6.83-.07-.26-.16-.52-.25-.78,.16-.2,.07-.38-.07-.54,.13-.41-.05-.76-.19-1.12,.19-.21,.01-.37-.07-.55,.09-.39-.05-.75-.12-1.11,.1-.22-.07-.37-.15-.55,.09-.38,.02-.75-.09-1.11,.05-.21,0-.4-.13-.57-.06-1.82-.36-3.62-.53-5.43-.22-2.32,.08-4.58,.99-6.75,.16-.15,.25-.32,.25-.54,.22-1.27,1.28-2.02,1.88-3.06,1.15-2.02,2.95-3.44,4.78-4.83,3.44-2.62,7.37-3.42,11.58-3.24,.59,.02,1.19,0,1.79,.01,.26,.19,.54,.12,.82,.08,.44,.24,.92,.22,1.39,.21,.17,.12,.34,.2,.54,.12,.53,.26,1.1,.35,1.67,.43,.15,.14,.33,.2,.54,.18,.92,.38,1.83,.76,2.75,1.15,2.1,.89,3.98,2.17,5.88,3.4,.17,.31,.46,.46,.77,.57,1.97,1.85,4.08,3.55,5.89,5.57,3.1,3.45,5.75,7.22,8.01,11.27,1.26,2.27,2.44,4.57,3.56,6.91,1.76,3.68,3.27,7.45,4.45,11.35,.12,.38,.12,.83,.45,1.13-.02,.19-.07,.39,.12,.53,0,.5,.2,.94,.34,1.4,.08,.36,.05,.76,.35,1.04-.18,.7,.21,1.32,.3,1.98,.22,1.48,.54,2.95,.83,4.43-.26,.22-.04,.39,.06,.57,.25,2.58,.5,5.15,.75,7.73-.15,.21-.05,.4,.06,.58,0,1.48,.02,2.95,.03,4.43-.22,.26-.23,.54-.06,.83-.2,.35-.16,.74-.19,1.12-.27,.23-.21,.53-.16,.82-.64,2.13-1.38,4.23-2.49,6.16-.89,1.55-2,2.96-3.2,4.29-3.44,3.81-7.49,6.82-12.04,9.2-1.57,.82-3.19,1.5-4.8,2.22-4.4,1.98-9.08,3.09-13.68,4.42-2.47,.71-4.95,1.4-7.42,2.1-.77,.25-1.61,.32-2.53,.92,1.02-.12,1.79-.21,2.56-.3,1.76,.02,3.44-.45,5.14-.76,3.15-.58,6.33-.95,9.51-1.28,.21,.09,.39,.02,.56-.11,1.48,.03,2.95-.06,4.42-.18,.21,.11,.4,.08,.57-.07,.36,0,.71,.01,1.07,.02,.29,.12,.58,.04,.86-.05,.27,0,.55,0,.82,0,.28,.24,.56,.1,.84,0,2.11,.11,4.22,.23,6.33,.34,.19,.14,.39,.09,.58,0,1.71,.22,3.42,.43,5.13,.67,1.98,.28,3.96,.58,5.95,.87,.24,.26,.53,.21,.82,.15,2.98,.7,5.91,1.59,8.92,2.18,.25,.22,.49,.39,.66-.08,.18-.45,.14-.92,.1-1.38,.26-.26,.08-.55,.05-.83,.2-.91,.28-1.84,.2-2.77,.19-.26,.1-.54,.04-.82,.26-1.76,.52-3.51,.78-5.27,.14-.17,.21-.35,.06-.55,.34-1.16,.68-2.32,1.01-3.48,.04-.13,.02-.27,.02-.4,.14-.15,.22-.33,.18-.54,.21-.65,.29-1.35,.67-1.94,.17-.14,.23-.33,.22-.55,.88-1.48,1.05-3.32,2.35-4.59,.09-.09,.16-.23,.2-.36,.45-1.68,1.62-2.97,2.64-4.24,2.29-2.83,5.15-4.86,9.01-4.95,.24,.24,.53,.22,.82,.17,2.63,1.14,3.78,3.58,5.14,5.83,.35,.59,.69,1.19,1.03,1.78,.25,.59,.54,.49,.84,.04,.22-.16,.49-.27,.65-.48,.78-1.01,1.57-2,2.54-2.85,.9-.78,1.36-1.93,2.16-2.82,2.03-2.26,3.96-4.63,6.21-6.67,1.77-1.61,3.62-3.17,5.58-4.52,3.28-2.27,6.81-4.08,10.69-5.17,2.02-.57,4.05-.66,6.12-.53,.27,.06,.55,.12,.82,.18,.29,.21,.63,.2,.97,.19,.26,.28,.58,.43,.97,.41,1.6,.96,3.21,1.89,4.6,3.18,1.92,1.77,3.71,3.65,5.34,5.68,2.46,3.07,4.49,6.41,6.24,9.94,1.29,2.59,2.16,5.32,2.75,8.15,.06,.18,.12,.37,.18,.55l.11,.83c-.07,.21,0,.4,.13,.56-.03,.84,.03,1.67,.28,2.48-.21,.28-.08,.55,.02,.83-.04,2.1-.07,4.19-.32,6.28-.35,.32-.4,.75-.42,1.19-.49,.45-.54,1.12-.86,1.67-1.27,2.16-2.99,3.87-5.05,5.27-.3,.07-.57,.19-.75,.47-.29,0-.52,.15-.77,.27-3.28,1.55-6.62,1.72-10.03,.4-3.12-1.21-6.26-2.4-9.4-3.56-1.46-.54-2.95-1.04-4.46-1.44-3.25-.86-5.26,.22-6.91,2.83-1.18,1.87-2.03,3.9-2.83,5.96-1.04,2.69-2.23,5.33-3.05,8.1-1.27,4.26-1.71,8.64-1.71,13.07,0,7.88,1.46,15.53,3.99,22.96,2.12,6.25,5.41,11.86,9.9,16.73,2.69,2.91,5.78,5.27,9.61,6.47,3.57,1.12,7.2,1.39,10.8,.17,4.43-1.49,7.43-6.59,6.79-11.15-.13-.92-.49-1.68-1.1-2.33-.82-.89-1.79-1.59-2.93-1.99-1.06-.37-1.42-.25-2.14,.64-.89,1.11-1.68,2.3-2.8,3.22-3.51,2.9-7.34,3.55-11.56,1.76-.78-.33-1.44-.83-2.08-1.34-3.84-3.07-7.01-6.64-8.24-11.58-.55-2.19-.71-4.44-.69-6.68,.03-2.34,1.19-4.31,2.67-6.05,.92-1.07,2.3-1.27,3.61-1.53,1.75-.34,1.77-.34,1.63-2.12-.2-2.61-.43-5.22-.29-7.84,.3-5.71,2.91-9.95,8.05-12.55,1.19-.6,1.44-1.11,1.2-2.41-.59-3.21,1.52-6.14,4.78-6.63,.78-.12,1.56-.08,2.34-.05,.17,.15,.35,.12,.54,.06,1.07,.58,2.21,1,3.28,1.62,3.03,1.75,4.86,6.12,4.02,9.65-.27,1.12-.62,2.19-1.06,3.24-.15,.35-.22,.69-.22,1.05-.25,.19-.42,.41-.37,.75-.51,1.32-1.12,2.61-1.26,4.04-.3,.25-.37,.57-.31,.94-.59,1.35-.23,2.63,.42,3.81,.75,1.38,2.21,1.67,3.53,.8,.5-.33,.83-.83,1.22-1.28,1.42-1.64,2.7-3.41,4.32-4.87,2.04-1.84,4.32-1.89,6.75-.94,1.25,.49,2.22,1.36,2.91,2.45,1.37,2.2,2.41,4.54,2.23,7.23-.16,2.41-1.29,4.35-3,6-2.8,2.71-7.06,2.14-9.68,.18-.42-.32-.96-.29-1.38-.52-1.35-.75-2.81-1.23-4.23-1.8-.13-.4-.48-.42-.81-.44-.45-.17-.89-.39-1.36-.49-.89-.19-1.78-.28-2.33,.71-.26,.31-.42,.64-.27,1.05-.26,.37-.14,.81-.16,1.21-.11,2.3,.07,2.48,2.46,2.64,.25,.23,.53,.22,.83,.12,.34,.24,.73,.18,1.11,.16,.25,.23,.53,.22,.83,.12,.34,.24,.73,.18,1.11,.16,.25,.23,.53,.22,.83,.11,.34,.25,.73,.18,1.11,.16,.25,.24,.53,.24,.82,.1,.43,.26,.91,.2,1.38,.21,.16,.21,.35,.18,.56,.07,.43,.26,.91,.2,1.38,.21,.16,.21,.35,.18,.56,.07,.43,.26,.91,.2,1.38,.21,.16,.21,.35,.18,.56,.07,.43,.27,.91,.19,1.38,.2,.24,.28,.55,.14,.83,.13,.35,.22,.74,.13,1.11,.12,.25,.23,.53,.22,.83,.12,.34,.24,.73,.18,1.11,.16,.25,.23,.53,.22,.83,.12,.34,.24,.73,.18,1.11,.16,.25,.23,.53,.22,.83,.12,.34,.24,.73,.18,1.11,.16,.25,.23,.53,.22,.83,.11,.34,.25,.73,.18,1.11,.16,.25,.24,.53,.24,.82,.1,.43,.26,.91,.2,1.38,.21,.16,.21,.35,.18,.56,.07,.43,.26,.91,.2,1.38,.21,.16,.21,.35,.18,.56,.07,.43,.26,.91,.2,1.38,.21,.24,.27,.55,.14,.83,.13,.35,.21,.73,.14,1.11,.14,.25,.27,.54,.17,.83,.1,.34,.24,.73,.18,1.11,.16,.25,.23,.53,.22,.83,.12,.34,.24,.73,.18,1.11,.16,.25,.23,.53,.22,.83,.12,.34,.24,.73,.18,1.11,.16,.25,.23,.53,.22,.83,.12,.34,.24,.73,.18,1.11,.15,.25,.24,.53,.22,.82,.12,.43,.28,.91,.17,1.38,.19,.16,.21,.35,.18,.56,.07,.43,.26,.91,.2,1.38,.21,.16,.21,.35,.18,.56,.07,.43,.26,.91,.2,1.38,.21,.16,.21,.35,.18,.56,.07,.43,.26,.91,.2,1.38,.21,.24,.27,.55,.14,.83,.13,.35,.21,.73,.14,1.11,.14,.25,.27,.54,.17,.83,.1,.34,.24,.73,.18,1.11,.16,.25,.23,.53,.22,.83,.12,.34,.24,.73,.18,1.11,.16,.25,.23,.53,.22,.83,.12,.34,.24,.73,.18,1.11,.16,.25,.23,.53,.22,.83,.11,.34,.25,.73,.18,1.11,.16,.25,.24,.53,.24,.82,.1,.43,.26,.91,.2,1.38,.21,.16,.21,.35,.18,.56,.07,.43,.26,.91,.2,1.38,.21,.16,.21,.35,.18,.56,.07,.43,.26,.91,.2,1.38,.21,.16,.21,.35,.18,.56,.07,.43,.27,.91,.19,1.38,.2,.24,.28,.55,.14,.83,.13,.35,.22,.74,.13,1.11,.12,.25,.23,.53,.22,.83,.12,.34,.24,.73,.18,1.11,.16,.25,.23,.53,.22,.83,.12,.34,.24,.73,.18,1.11,.16,.25,.23,.53,.22,.83,.12,.34,.24,.73,.18,1.11,.16,.25,.23,.53,.22,.83,.11,.34,.25,.73,.18,1.11,.16,.25,.24,.53,.24,.82,.1,.43,.26,.91,.2,1.38,.21,.16,.21,.35,.18,.56,.07,.43,.26,.91,.2,1.38,.21,.16,.21,.35,.18,.56,.07,.43,.26,.91,.2,1.38,.21,.24,.27,.55,.14,.83,.13,.35,.21,.73,.14,1.11,.14,.25,.27,.54,.17,.83,.1,.34,.24,.73,.18,1.11,.16,.25,.23,.53,.22,.83,.12,.34,.24,.73,.18,1.11,.16,.25,.23,.53,.22,.83,.12,.34,.24,.73,.18,1.11,.16,.25,.23,.53,.22,.83,.12,.34,.24,.73,.18,1.11,.15,.25,.24,.53,.22,.82,.12,.43,.28,.91,.17,1.38,.19,.16,.21,.35,.18,.56,.07,.43,.26,.91,.2,1.38,.21,.16,.21,.35,.18,.56,.07,.43,.26,.91,.2,1.38,.21,.16,.21,.35,.18,.56,.07,.43,.26,.91,.2,1.38,.21,.24,.27,.55,.14,.83,.13,.35,.21,.73,.14,1.11,.14,.25,.27,.54,.17,.83,.1,.34,.24,.73,.18,1.11,.16,.25,.23,.53,.22,.83,.12,.34,.24,.73,.18,1.11,.16,.25,.23,.53,.22,.83,.12,.78,.37,1.81,.14,2.38,1.01,.02,.19,.05,.37,.08,.56-.33,.39-.17,1.27-1.08,1.11-.16-.21-.35-.18-.56-.07-.43-.26-.91-.2-1.38-.21-.24-.27-.55-.14-.83-.13-.35-.22-.74-.13-1.11-.12-.25-.23-.53-.22-.83-.12-.34-.24-.73-.18-1.11-.16-.25-.23-.53-.22-.83-.12-.34-.24-.73-.18-1.11-.16-.25-.23-.53-.22-.83-.12-.34-.24-.73-.18-1.11-.16-.25-.23-.53-.22-.83-.11-.34-.25-.73-.18-1.11-.16-.25-.24-.53-.24-.82-.1-.43-.26-.91-.2-1.38-.21-.16-.21-.35-.18-.56-.07-.43-.26-.91-.2-1.38-.21-.16-.21-.35-.18-.56-.07-.43-.26-.91-.2-1.38-.21-.16-.21-.35-.18-.56-.07-.43-.27-.91-.19-1.38-.2-.24-.28-.55-.14-.83-.13-.35-.22-.74-.13-1.11-.12-.25-.23-.53-.22-.83-.12-.34-.24-.73-.18-1.11-.16-.25-.23-.53-.22-.83-.12-.34-.24-.73-.18-1.11-.16-.25-.23-.53-.22-.83-.12-.34-.24-.73-.18-1.11-.16-.25-.23-.53-.22-.83-.11-.43-.28-.91-.17-1.38-.19-.16-.21-.35-.18-.56-.07-.43-.26-.91-.2-1.38-.21-.16-.21-.35-.18-.56-.07-.43-.26-.91-.2-1.38-.21-.16-.21-.35-.18-.56-.07-.43-.26-.91-.2-1.38-.21-.24-.27-.55-.14-.83-.13-.35-.21-.73-.14-1.11-.14-.25-.27-.54-.17-.83-.1-.34-.24-.73-.18-1.11-.16-.25-.23-.53-.22-.83-.12-.34-.24-.73-.18-1.11-.16-.25-.23-.53-.22-.83-.12-.34-.24-.73-.18-1.11-.16-.25-.23-.53-.22-.83-.12-.34-.24-.73-.18-1.11-.15-.25-.24-.53-.22-.82-.12-.43-.28-.91-.17-1.38-.19-.16-.21-.35-.18-.56-.07-.43-.26-.91-.2-1.38-.21-.16-.21-.35-.18-.56-.07-.43-.26-.91-.2-1.38-.21-.16-.21-.35-.18-.56-.07-.43-.26-.91-.2-1.38-.21-.24-.27-.55-.14-.83-.13-.35-.22-.74-.13-1.11-.12-.25-.23-.53-.22-.83-.12-.34-.24-.73-.18-1.11-.16-.25-.23-.53-.22-.83-.12-.34-.24-.73-.18-1.11-.16-.25-.23-.53-.22-.83-.12-.34-.24-.73-.18-1.11-.16-.25-.23-.53-.22-.83-.11-.34-.25-.73-.18-1.11-.16-.25-.24-.53-.24-.82-.1-.43-.26-.91-.2-1.38-.21-.16-.21-.35-.18-.56-.07-.43-.26-.91-.2-1.38-.21-.16-.21-.35-.18-.56-.07-.43-.26-.91-.2-1.38-.21-.16-.21-.35-.18-.56-.07-.43-.27-.91-.19-1.38-.2-.24-.28-.55-.14-.83-.13-.35-.22-.74-.13-1.11-.12-.25-.23-.53-.22-.83-.12-.34-.24-.73-.18-1.11-.16-.25-.23-.53-.22-.83-.12-.34-.24-.73-.18-1.11-.16-.25-.23-.53-.22-.83-.12-.34-.24-.73-.18-1.11-.16-.25-.23-.53-.22-.83-.11-.43-.28-.91-.17-1.38-.19-.16-.21-.35-.18-.56-.07-.43-.26-.91-.2-1.38-.21-.16-.21-.35-.18-.56-.07-.43-.26-.91-.2-1.38-.21-.16-.21-.35-.18-.56-.07-.43-.26-.91-.2-1.38-.21-.24-.27-.55-.14-.83-.13-.35-.21-.73-.14-1.11-.14-.25-.27-.54-.17-.83-.1-.34-.24-.73-.18-1.11-.16-.25-.23-.53-.22-.83-.12-.34-.24-.73-.18-1.11-.16-.25-.23-.53-.22-.83-.12-.34-.24-.73-.18-1.11-.16-.25-.23-.53-.22-.83-.12-.34-.24-.73-.18-1.11-.15-.25-.24-.53-.22-.82-.12-.43-.28-.91-.17-1.38-.19-.16-.21-.35-.18-.56-.07-.43-.26-.91-.2-1.38-.21-.16-.21-.35-.18-.56-.07-.43-.26-.91-.2-1.38-.21-.16-.21-.35-.18-.56-.07-.43-.26-.91-.2-1.38-.21-.24-.27-.55-.14-.83-.13-.35-.22-.74-.13-1.11-.12-.25-.23-.53-.22-.83-.12-.34-.24-.73-.18-1.11-.16-.33-.15-.73-.48-.76,.25-.08,1.84-.06,3.69,.07,5.53,0,.19-.01,.37-.02,.56-.07,.8-.12,1.61-.21,2.41-.16,1.44,.39,2.49,1.67,3.15,.77,.39,1.58,.73,2.37,1.09,.16,.31,.44,.43,.76,.48,1.55,1.16,2.68,2.6,2.99,4.57,.17,1.1-.05,2.18-.18,3.26-.12,.16-.19,.34-.15,.54-.67,1.23-1.17,2.54-1.9,3.75-1.92,3.17-4.76,5.17-8.14,6.38-1.22,.44-2.59,.53-3.93,.57-.21-.12-.4,0-.58,.08-2.29-.33-4.61-.55-6.78-1.44-1.52-.62-3-1.33-4.39-2.24-1.13-.73-2.22-1.52-3.34-2.25-.42-.27-.79-.63-1.12-1.01-1.2-1.4-2.46-2.75-3.73-4.09-.93-.98-1.58-2.16-2.25-3.33-.07-.3-.19-.56-.48-.7-.98-1.32-1.78-2.75-2.36-4.29-.03-.3-.12-.56-.39-.73-.29-.9-.6-1.79-1.18-2.56-.26-.35-.45-.75-.5-1.19-.08-.63-.33-1.16-.66-1.73-.4-.69-.66-1.5-.73-2.35-.06-.66-.13-1.36-.8-1.75,.04-.08,.02-.15-.05-.19,.02-.09,.09-.19,.07-.26-.79-2.84-1.08-5.78-1.97-8.59,.16-.2,.07-.38-.07-.54,.1-.4-.06-.75-.18-1.12,.19-.22-.03-.37-.09-.54-.13-1.48-.26-2.96-.39-4.44,.1-.21,.05-.4-.09-.57,.11-.28,.02-.54-.04-.81,.19-.19,.17-.37-.02-.55,0-3.47,.37-6.92,.61-10.38,.38-.35,.31-.8,.27-1.25,.25-.34,.19-.73,.22-1.11,.23-.24,.2-.53,.17-.82,.19-.84,.61-1.64,.45-2.53-.1-.55,.66-.79,.46-1.36,.14-.15,.2-.33,.16-.54,.24-.28,.23-.61,.21-.95,.29-.27,.4-.6,.37-.99,.5-1.48,.99-2.96,1.49-4.43,.17-.14,.2-.34,.21-.54,.21-1.05,1.88-3.94,2.74-4.83,.86-.88,1.34-2.05,2.17-2.97,1.76-1.94,3.67-2.64,6.18-1.99,2.06,.54,4.11,1.15,6.16,1.74,.15,.16,.33,.21,.55,.17,.6,.38,1.24,.62,1.95,.64l.54,.21c.39,.28,.81,.49,1.31,.42,.23,.3,.55,.35,.9,.32,1.4,.61,2.76,1.34,4.28,1.63,.16,.27,.38,.4,.69,.38,2.37,.76,4.62,.43,6.93-.43,1.14-.43,2.21-1.04,3.04-1.75,1.24-1.07,2.68-2.07,3.42-3.65,.27-.58,.46-1.19,.69-1.79,.17-.15,.2-.34,.15-.55,.28-.42,.19-.9,.21-1.36,.14-.18,.12-.38,.03-.58,.28-1.66,.26-3.32-.02-4.97,.05-.29,.04-.56-.1-.82-.22-1.66-.28-3.33-1.16-4.86-.31-.55-.16-1.32-.44-1.97-.9-2.06-1.83-4.11-2.9-6.08-.43-.79-1.03-1.48-1.54-2.22-.71-1.05-1.25-2.2-2.1-3.17-1.31-1.48-2.46-3.11-3.8-4.57-1.12-1.23-2.35-2.42-3.64-3.43-1.09-.85-2.28-1.89-3.85-1.96-.38-.3-.8-.46-1.29-.32-.84-.22-1.67-.25-2.49,.09-.19-.07-.37-.12-.54,.06-.67-.08-1.26,.21-1.85,.42-7.12,2.62-13.13,6.88-18.24,12.43-2.48,2.69-4.67,5.62-6.98,8.45-1.05,1.29-1.22,2.68-.45,4.22,2.05,4.12,3.36,8.48,4,13.04,.04,.32,.13,.63,.2,.94-.2,.22-.03,.38,.09,.55-.09,.94,.04,1.86,.23,2.77-.22,.28-.03,.55,.03,.83,0,1.38,0,2.76,0,4.13,.03,2.81-.4,5.57-.8,8.33-.13,.16-.18,.34-.16,.54-.82,2.55-1.59,5.1-2.95,7.45-1.65,2.84-3.6,5.38-6.21,7.4-.25,.19-.45,.43-.68,.65-.31,.06-.53,.23-.68,.51-1.12,.44-1.99,1.27-2.96,1.92-2.2,1.46-4.5,2.75-6.76,4.12-1.71,1.03-3.21,2.22-4,4.14-.31,.75-.35,1.51-.34,2.29-.12,.3,.02,.57,.1,.85-.04,.75,0,1.5,.24,2.22-.18,.21-.06,.37,.07,.54-.18,.89,.11,1.74,.21,2.6,.29,2.51,.6,5.02,.91,7.53,.03,.23,.11,.45,.17,.67-.23,.23-.02,.38,.09,.55-.13,.48,0,.94,.12,1.4-.06,.21-.03,.39,.11,.56-.07,.77,.12,1.51,.23,2.26,.05,.31,.23,.47,.56,.38,.23,.07,.41-.07,.59-.18,1.78-.23,3.44-.88,5.08-1.55,1.41-.57,2.76-1.3,4.14-1.95,.82-.38,1.64-.73,2.36-1.31,.57-.45,1.33-.65,1.95-1.06,1.34-.88,2.83-1.51,4.04-2.59,.34-.3,.81-.46,1.23-.68,.34-.08,.62-.23,.83-.51Zm-235.65-17.37c-.08-.08-.2-.23-.23-.22-.18,.11-.11,.27-.03,.42,.31,1.08,.88,2.01,1.6,2.86,4.43,5.3,6.98,11.39,7.78,18.24,.57,4.9,.52,9.79,0,14.69-.68,6.51-2.01,12.88-4.07,19.09-1.55,4.68-3.71,9.08-6.08,13.4-.79,1.44-1.76,2.51-3.32,3.02-.81-1.61-.69-3.17-.24-4.84,.83-3.1,1.58-6.23,2.23-9.37,1.04-5.04,1.88-10.11,2.41-15.23,.58-5.67,.75-11.34,.37-17.02-.44-6.6-1.72-13.09-2.88-19.59-.22-1.21-.82-2.13-1.75-2.86-2.68-2.1-5.51-4.01-8.46-5.71-5.7-3.28-11.71-5.95-17.84-8.32-5.75-2.22-11.63-4.01-17.73-5.02-6.65-1.1-13.32-1.5-20.01-.36-6.39,1.09-12.13,3.54-17.06,7.83-2.95,2.57-5.31,5.59-7.29,8.95-3.13,5.31-5.37,10.93-6.28,17.07-.95,6.41-.16,12.6,2,18.67,1.81,5.07,4.57,9.61,7.75,13.91,3.76,5.09,8.06,9.7,12.46,14.22,1.37,1.41,2.82,2.74,4.3,4.18,.36-.77,.32-1.45,.37-2.11,.16-2.06,.22-4.14,.94-6.11,.28-.78,.74-1.5,.96-2.29,1.25-4.51,3.22-8.68,5.81-12.58,1.84-2.76,3.9-5.35,6.19-7.75,3.34-3.49,6.88-6.79,10.49-10.01,5.03-4.48,10.26-8.67,15.91-12.35,4.28-2.79,8.63-5.45,13.08-7.96,1.24-.7,2.44-1.47,3.83-1.87,1.94-.55,3.87-1.18,5.94-1.09,2.66,.12,4.37,1.7,4.65,4.36,.15,1.34-.06,2.66-.34,3.97-.79,3.75-2.23,7.28-3.83,10.74-2.47,5.36-5.6,10.34-8.79,15.29-3.57,5.52-7.21,10.99-10.75,16.53-3.14,4.92-6.33,9.81-9.32,14.82-2.68,4.5-5.05,9.16-6.96,14.04-2.41,6.15-3.67,12.5-2.99,19.13,.52,5.15,2.12,9.95,4.79,14.37,2.36,3.89,4.78,7.75,7.23,11.58,3,4.69,5.78,9.52,9.01,14.05,.23,.32,.38,.71,.65,.65,1-1.03,2.2-1.85,3.16-2.9,3.15-3.45,6.6-6.54,10.34-9.32,4.25-3.15,8.55-6.23,12.63-9.6,5.3-4.37,10.31-9.04,14.77-14.28,2.12-2.49,4.06-5.13,5.84-7.86,2.01-3.08,3.83-6.27,5.19-9.71,2-5.04,3.61-10.21,4.76-15.51,.91-4.17,1.46-8.4,1.6-12.67,.25-7.28-.71-14.39-2.93-21.35-2.58-8.1-6.32-15.57-11.75-22.14-4.38-5.29-9.28-10.1-14.12-14.96-1.18-1.19-2.44-2.37-4-3.11Zm148.25-35.44c3.01-.56,5.84-.88,8.58-1.67,5.78-1.66,11.52-3.44,17.13-5.63,4.76-1.86,9.1-4.38,12.84-7.89,2.12-1.99,4.03-4.15,5.3-6.82,1.38-2.91,2.01-5.99,2.22-9.17,.2-3.08-.02-6.15-.4-9.21-.73-5.91-2.24-11.62-4.49-17.13-1.32-3.24-2.94-6.33-4.51-9.45-2.33-4.61-5.01-8.99-8.51-12.85-2.17-2.4-4.53-4.58-7.06-6.59-2.55-2.03-5.52-3.27-8.64-4.16-4.68-1.34-9.24-1.16-13.6,1.2-2.06,1.12-3.81,2.58-5.01,4.62-1.8,3.07-2.48,6.43-2.18,9.93,.39,4.49,1.09,8.94,2.04,13.35,.67,3.14,1.67,6.2,2.58,9.28,1.55,5.24,2.85,10.55,4.15,15.86,1.34,5.48,2.71,10.96,3.2,16.61,.44,5.05-.07,9.97-1.89,14.75-.6,1.58-1.35,3.11-1.77,4.96Zm-6.72,88.29c.13,.24,.23,.34,.25,.46,.83,4.76,1.64,9.52,2.49,14.27,.6,3.34,1.36,6.64,2.65,9.81,1.41,3.48,3.37,6.64,5.44,9.73,1.69,2.51,3.37,5.05,5.93,6.84,1.17,.82,2.41,1.52,3.62,2.27,2.69,1.68,5.61,2.76,8.71,3.3,4.54,.78,9.07,.66,13.54-.49,5.61-1.46,9.64-4.81,11.82-10.23,1.57-3.89,2.11-7.97,2.02-12.14-.07-3.06-.67-6.03-1.97-8.8-2.34-4.97-5.89-8.98-10.22-12.3-3.37-2.58-7.03-4.7-10.87-6.49-5.78-2.7-11.59-5.34-17.42-7.94-5.03-2.25-10.1-4.4-14.98-6.98-3.76-1.99-7.3-4.33-10.32-7.33-3.37-3.34-6.93-6.47-10.47-9.63-.23-.21-.44-.5-.85-.36-.38,1.45-.77,2.9-1.14,4.36-.8,3.11-1.78,6.18-2.34,9.35-.86,4.83-.54,9.61,.29,14.4,.79,4.56,2.9,8.38,6.34,11.48,.9,.81,1.92,1.41,3.06,1.8,1.8,.61,3.55,.29,5.24-.38,1.62-.64,3.14-1.52,4.64-2.41,1.49-.88,3.01-1.71,4.55-2.58Zm95.63-31.89c-.36,.17-.62,.27-.85,.41-.56,.32-1.1,.66-1.65,1-5.2,3.27-10.64,6.03-16.5,7.9-2.3,.74-2.96,1.35-2.67,4.01,.02,.14,0,.28,.02,.41,.45,3.65,.71,7.32,.9,11,.31,5.96,.22,11.92,.14,17.89-.05,4.03-.34,8.07-.03,12.1,.21,2.75,1.03,5.3,2.76,7.52,1.03,1.32,2.33,1.7,3.91,1.39,.95-.18,1.9-.38,2.84-.57,2.8-.58,5.61-1.09,8.47-1.08,3.68,.02,7.34,.34,11,.65,2.79,.24,5.57,.62,8.38,.57,2.32-.03,4.57-.43,6.65-1.54,3.1-1.65,5.03-4.28,6-7.57,1.15-3.89,1.61-7.91,1.81-11.94,.12-2.45-.61-4.7-2.03-6.73-1.36-1.96-3.12-3.48-5.02-4.88-3.81-2.82-7.74-5.47-11.15-8.79-4.76-4.62-8.37-9.99-10.88-16.13-.75-1.83-1.2-3.76-2.12-5.62Zm-6.34-70.2s-.1,.01-.11,.03c-1.76,4.59-3.32,9.23-4.05,14.13-.35,2.35-.7,4.73-1.53,6.98-.79,2.16-2.25,3.67-4.58,4.15-2.13,.44-4.28,.42-6.44,.26-1.28-.1-2.55-.22-3.84-.23-6.57-.02-12.36,2.01-17.24,6.48-4.23,3.89-6.6,8.64-6.7,14.44-.04,2.21,.21,4.4,.56,6.58,.79,4.94,2.02,9.72,4.81,13.97,2.68,4.07,6,7.45,10.47,9.53,2.45,1.14,5.08,1.57,7.78,1.46,1.15-.04,1.42-.36,1.43-1.54,0-.23,0-.46-.03-.68-.57-5.16-.87-10.35-1.55-15.5-.33-2.5,.04-4.93,1.42-7.14,1.25-2.02,3.06-3.39,5.02-4.63,2.29-1.46,4.75-2.63,7.08-4.01,3.57-2.12,6.35-4.98,8.03-8.83,1.25-2.87,2.14-5.87,2.8-8.93,.55-2.56,1.03-5.15,1.09-7.77,.15-6.46-1.48-12.54-4.05-18.41-.08-.18-.16-.33-.37-.35Zm-165.56,50.07c-.21-.22-.28-.34-.39-.4-.32-.18-.65-.34-.99-.49-3.67-1.69-7.03-3.84-9.58-7.03-1.84-2.3-3.32-4.85-4.81-7.4-1.02-1.74-1.9-3.57-3.06-5.24-.92-1.32-2.1-2.29-3.6-2.89-2.38-.96-4.77-1.91-7.13-2.93-5.1-2.22-10.33-4.06-15.68-5.57-3.88-1.1-7.81-2.01-11.77-2.74-5.38-1-10.79-1.78-16.23-2.34-3.61-.37-7.22-.66-10.83-1.01-1.62-.16-3.26-.21-5.22-.33,1.33,1.09,2.42,1.99,3.68,2.61,3.5,1.72,7.12,3.2,10.54,5.08,3.51,1.94,6.91,4.04,10.21,6.3,3.03,2.08,5.96,4.31,8.82,6.63,3.21,2.61,6.37,5.29,9.43,8.09,3.1,2.84,6.41,5.41,10.19,7.27,4.7,2.31,9.72,3.6,14.92,4.13,3.9,.4,7.8,.33,11.7-.07,3.25-.34,6.46-.91,9.8-1.66Zm-21.5-26.65c-.21-.48-.29-.64-.36-.8-1.11-2.43-2.56-4.68-3.93-6.96-1.7-2.83-3.32-5.72-5.35-8.35-5.05-6.53-11.51-11.03-19.36-13.49-5.52-1.73-11.22-2.37-16.99-1.93-4.62,.35-9.04,1.52-13.17,3.72-3.46,1.84-6.41,4.28-9.03,7.15-.62,.68-1.2,1.4-1.7,2.17-1.22,1.86-.62,3.21,1.5,3.41,5.89,.55,11.78,1.12,17.67,1.61,3.99,.33,7.94,.88,11.89,1.49,4.57,.71,9.08,1.75,13.56,2.95,6.49,1.73,12.79,3.97,19,6.52,1.98,.81,3.98,1.59,6.28,2.5Zm120.49-.21c-.25-.36-.4-.3-.53-.29-4.54,.26-9.08,.44-13.61,.79-6.09,.47-12.13,1.24-17.97,3.16-5.16,1.69-9.69,4.4-13.45,8.34-.33,.35-.73,.68-.74,1.23,.61,.21,1.14,.48,1.73,.61,3.81,.83,7.67,1.42,11.56,1.61,10.27,.52,19.77-1.8,28.23-7.84,2.66-1.9,4.25-4.5,4.79-7.62Zm6.26,57.91c.02-.1,.04-.19,.06-.29-1.8-1.2-3.61-2.37-5.39-3.59-4.31-2.97-8.74-5.76-13.2-8.52-3.91-2.41-7.87-4.73-11.85-7.02-2.8-1.61-5.79-2.54-8.93-3.07-1.99-.34-3.34,.92-3.2,2.91,.06,.78,.17,1.55,.33,2.32,.61,2.85,1.75,5.3,4.22,7.16,4.21,3.17,8.66,5.87,13.49,7.94,3.3,1.41,6.73,2.42,10.35,2.62,2.62,.15,5.23,.05,7.84-.08,2.09-.11,4.18-.24,6.26-.37Zm107.89-31.2c-.06-.14-.07-.19-.1-.23-.15-.17-.31-.34-.46-.5-2.55-2.69-3.02-5.78-1.68-9.16,.59-1.49,1.38-2.9,2.04-4.36,.44-.96,.88-1.92,1.19-2.93,.98-3.21-.84-5.88-3.55-7.64-.83-.54-1.75-.78-2.75-.76-2.21,.03-3.38,1.41-2.98,3.56,.12,.63,.3,1.25,.38,1.89,.16,1.3-.27,2.1-1.45,2.68-.62,.3-1.27,.52-1.91,.8-1.41,.62-2.6,1.51-3.56,2.73-1.52,1.93-2.07,4.17-2.21,6.53-.19,3.16-.1,6.33-.06,9.49,0,.88,.33,1.51,1.06,1.95,.63,.38,1.25,.77,1.9,1.11,2.64,1.38,5.43,2.18,8.43,2.16,.85,0,1.02-.16,.99-1.03-.02-.83,0-1.65,.14-2.46,.27-1.53,1-2.73,2.47-3.42,.64-.3,1.36-.13,2.11-.41Zm-25.26,11.4c-.03,1.5,.09,2.78,.35,4.03,1.12,5.48,4.53,9.36,8.92,12.49,1.34,.96,2.9,1.4,4.55,.66,2.12-.96,3.99-2.28,5.71-3.83,.71-.64,.67-.99-.16-1.48-.75-.44-1.56-.78-2.32-1.2-5.54-3.01-9.44-7.39-11.16-13.54-.17-.62-.39-1.23-.72-1.79-.17-.3-.4-.47-.76-.51-1.24-.13-2.84,.61-3.4,1.72-.57,1.14-1.24,2.28-1.02,3.45Zm29.28-10.53c1.22,.84,2.52,1.18,3.72,1.74,1.83,.85,3.57,1.9,5.52,2.47,1.9,.56,3.43-.08,4.47-1.78,.72-1.18,1-2.5,1.03-3.81,.05-2-.33-3.95-1.76-5.5-1.37-1.48-3.11-1.6-4.66-.35-.28,.23-.54,.5-.79,.77-1.39,1.47-2.81,2.92-4.15,4.42-.89,.99-1.92,1.7-3.38,2.04Zm-8.07,19.17c-.03-2.58-.17-5.06-.06-7.54,.04-.86-.41-1.45-1.3-1.71-.8-.23-1.62-.31-2.44-.39-2.61-.27-5.21-.56-7.45-2.13-.1-.07-.25-.11-.37,0,.42,4.12,7.13,11.18,11.62,11.76Zm-271.67-9.37c2.19,14.91,1.48,29.44-1.02,43.79-.2-.39,.31-.7,.41-1.12,1.25-5.35,2.7-10.66,3.54-16.11,.99-6.42,.97-12.81-.45-19.16-.55-2.44-1.18-4.86-2.49-7.4Zm177.6,21.6c1.93,1.6,3.93,2.68,6.13,3.37,2.52,.79,4.89,.42,7.07-1.08,.84-.58,.84-1.71,.01-2.26-2.21-1.49-4.56-2.33-7.25-1.5-.26,.08-.54,.09-.81,.16-1.67,.42-3.35,.85-5.16,1.31Zm-66.18-35.64c-.33,4.12,1.95,6.99,3.93,10.17,.9-3.96-.85-8.54-3.93-10.17Z"/>
  <line class="cls-4" x1="37.73" y1="122.54" x2=".17" y2="117.27"/>
  <g id="Group_1" data-name="Group 1">
    <g id="Path_7" data-name="Path 7">
      <polygon class="cls-3" points="966.81 251.27 966.58 251.27 966.44 249.28 1920.78 115.24 1921.06 117.22 966.81 251.25 966.81 251.27"/>
    </g>
    <g id="Path_5" data-name="Path 5">
      <rect class="cls-3" x="842.01" y="109.33" width="2" height="249.83" transform="translate(502.39 1040.17) rotate(-82.62)"/>
    </g>
  </g>
</svg>